<?xml version="1.0" standalone="no"?>
<!DOCTYPE svg PUBLIC "-//W3C//DTD SVG 20010904//EN"
 "http://www.w3.org/TR/2001/REC-SVG-20010904/DTD/svg10.dtd">
<svg version="1.0" xmlns="http://www.w3.org/2000/svg"
 width="600.000000pt" height="600.000000pt" viewBox="0 0 600.000000 600.000000"
 preserveAspectRatio="xMidYMid meet">
<metadata>
Created by potrace 1.14, written by Peter Selinger 2001-2017
</metadata>
<g transform="translate(0.000000,600.000000) scale(0.100000,-0.100000)"
fill="#000000" stroke="none">
<path d="M0 3000 l0 -3000 3000 0 3000 0 0 3000 0 3000 -3000 0 -3000 0 0
-3000z m2668 548 c33 -8 60 -25 93 -58 64 -64 72 -104 67 -341 -3 -206 -6
-216 -73 -244 l-29 -13 36 -15 c61 -26 68 -51 68 -257 l0 -180 -110 0 -110 0
0 134 c0 130 -1 136 -26 165 -14 17 -42 35 -62 41 -25 7 -306 10 -877 8 l-840
-3 -3 -172 -2 -173 -105 0 -105 0 0 560 0 560 1016 0 c744 0 1028 -3 1062 -12z
m2575 3 c60 -14 113 -57 142 -114 20 -41 25 -65 25 -129 l0 -78 -103 0 -103 0
-17 38 c-34 77 24 72 -902 72 l-827 0 -34 -34 -34 -34 0 -272 0 -272 34 -34
34 -34 827 0 c926 0 868 -5 902 72 l17 38 103 0 103 0 0 -78 c0 -64 -5 -88
-25 -129 -29 -57 -82 -100 -142 -114 -58 -13 -1854 -12 -1908 2 -66 17 -131
78 -150 142 -22 75 -22 739 0 814 18 61 84 125 143 141 47 13 1862 15 1915 3z"/>
<path d="M800 3170 l0 -170 860 0 c744 0 865 2 890 15 51 26 60 50 60 158 l0
99 -34 34 -34 34 -871 0 -871 0 0 -170z"/>
</g>
</svg>
